$MeshFormat
4.1 0 8
$EndMeshFormat
$PhysicalNames
9
0 6 "botLeft"
0 7 "topLeft"
0 8 "topRight"
0 9 "botRight"
1 2 "left"
1 3 "top"
1 4 "right"
1 5 "bottom"
2 1 "volume"
$EndPhysicalNames
$Entities
4 4 1 0
1 0 0 0 1 6 
2 1 0 0 1 9 
3 1 1 0 1 8 
4 0 1 0 1 7 
1 0 0 0 1 0 0 1 5 2 1 -2 
2 1 0 0 1 1 0 1 4 2 2 -3 
3 0 1 0 1 1 0 1 3 2 3 -4 
4 0 0 0 0 1 0 1 2 2 4 -1 
1 0 0 0 1 1 0 1 1 4 4 1 2 3 
$EndEntities
$Nodes
9 65 1 66
0 1 0 1
1
0 0 0
0 2 0 1
2
1 0 0
0 3 0 1
3
1 1 0
0 4 0 1
4
0 1 0
1 1 0 7
5
6
7
27
28
29
30
0.4999999997552249 0 0
0.2499999998776848 0 0
0.7499999998776123 0 0
0.1249999999388424 0 0
0.3749999998164548 0 0
0.6249999998164186 0 0
0.8749999999388062 0 0
1 2 0 7
8
9
10
31
32
33
34
1 0.4999999997552249 0
1 0.2499999998776848 0
1 0.7499999998776123 0
1 0.1249999999388424 0
1 0.3749999998164548 0
1 0.6249999998164186 0
1 0.8749999999388062 0
1 3 0 7
11
12
13
35
36
37
38
0.5000000002447751 1 0
0.7500000001228245 1 0
0.2500000001223877 1 0
0.8750000000614122 1 0
0.6250000001837999 1 0
0.3750000001835814 1 0
0.1250000000611938 1 0
1 4 0 7
14
15
16
39
40
41
42
0 0.5000000002447751 0
0 0.7500000001228245 0
0 0.2500000001223877 0
0 0.8750000000614122 0
0 0.6250000001837999 0
0 0.3750000001835814 0
0 0.1250000000611938 0
2 1 0 33
17
18
19
20
21
22
23
24
25
43
44
45
46
47
48
49
50
51
52
53
54
55
56
57
58
59
60
61
62
63
64
65
66
0.5 0.5 0
0.25 0.5000000001223875 0
0.5000000001223875 0.75 0
0.2500000000611938 0.7500000000614123 0
0.75 0.4999999998776125 0
0.7500000000614123 0.7499999999388061 0
0.4999999998776125 0.25 0
0.2499999999388424 0.2500000000611938 0
0.7499999999388062 0.2499999999388424 0
0.1250000000305969 0.7500000000921184 0
0.2500000000917907 0.8750000000307061 0
0.125 0.5000000001835814 0
0.2500000000305969 0.6250000000918999 0
0.375 0.5000000000611937 0
0.5000000000611937 0.625 0
0.3750000000917907 0.7500000000307061 0
0.5000000001835814 0.875 0
0.6250000000918999 0.749999999969403 0
0.7500000000921184 0.874999999969403 0
0.625 0.4999999999388062 0
0.7500000000307061 0.6249999999082092 0
0.875 0.4999999998164186 0
0.8750000000307061 0.7499999999082092 0
0.1249999999694212 0.2500000000917907 0
0.2499999999694212 0.3750000000917907 0
0.2499999999082636 0.1250000000305969 0
0.4999999998164186 0.125 0
0.3749999999082274 0.2500000000305969 0
0.4999999999388062 0.375 0
0.6249999999082093 0.2499999999694212 0
0.7499999999694031 0.3749999999082274 0
0.7499999999082092 0.1249999999694212 0
0.8749999999694031 0.2499999999082636 0
$EndNodes
$Elements
9 36 1 80
0 1 15 1
1 1 
0 2 15 1
2 2 
0 3 15 1
3 3 
0 4 15 1
4 4 
1 1 8 4
49 1 6 27 
50 6 5 28 
51 5 7 29 
52 7 2 30 
1 2 8 4
53 2 9 31 
54 9 8 32 
55 8 10 33 
56 10 3 34 
1 3 8 4
57 3 12 35 
58 12 11 36 
59 11 13 37 
60 13 4 38 
1 4 8 4
61 4 15 39 
62 15 14 40 
63 14 16 41 
64 16 1 42 
2 1 16 16
65 4 15 20 13 39 43 44 38 
66 15 14 18 20 40 45 46 43 
67 20 18 17 19 46 47 48 49 
68 13 20 19 11 44 49 50 37 
69 11 19 22 12 50 51 52 36 
70 19 17 21 22 48 53 54 51 
71 22 21 8 10 54 55 33 56 
72 12 22 10 3 52 56 34 35 
73 14 16 24 18 41 57 58 45 
74 16 1 6 24 42 27 59 57 
75 24 6 5 23 59 28 60 61 
76 18 24 23 17 58 61 62 47 
77 17 23 25 21 62 63 64 53 
78 23 5 7 25 60 29 65 63 
79 25 7 2 9 65 30 31 66 
80 21 25 9 8 64 66 32 55 
$EndElements
