$MeshFormat
4.1 0 8
$EndMeshFormat
$PhysicalNames
9
0 6 "botLeft"
0 7 "topLeft"
0 8 "topRight"
0 9 "botRight"
1 2 "left"
1 3 "top"
1 4 "right"
1 5 "bottom"
2 1 "volume"
$EndPhysicalNames
$Entities
4 4 1 0
1 0 0 0 1 6 
2 1 0 0 1 9 
3 1 1 0 1 8 
4 0 1 0 1 7 
1 0 0 0 1 0 0 1 5 2 1 -2 
2 1 0 0 1 1 0 1 4 2 2 -3 
3 0 1 0 1 1 0 1 3 2 3 -4 
4 0 0 0 0 1 0 1 2 2 4 -1 
1 0 0 0 1 1 0 1 1 4 4 1 2 3 
$EndEntities
$Nodes
9 25 1 25
0 1 0 1
1
0 0 0
0 2 0 1
2
1 0 0
0 3 0 1
3
1 1 0
0 4 0 1
4
0 1 0
1 1 0 3
5
6
7
0.4999999997552249 0 0
0.2499999998776848 0 0
0.7499999998776123 0 0
1 2 0 3
8
9
10
1 0.4999999997552249 0
1 0.2499999998776848 0
1 0.7499999998776123 0
1 3 0 3
11
12
13
0.5000000002447751 1 0
0.7500000001228245 1 0
0.2500000001223877 1 0
1 4 0 3
14
15
16
0 0.5000000002447751 0
0 0.7500000001228245 0
0 0.2500000001223877 0
2 1 0 9
17
18
19
20
21
22
23
24
25
0.5 0.5 0
0.25 0.5000000001223875 0
0.5000000001223875 0.75 0
0.2500000000611938 0.7500000000614123 0
0.75 0.4999999998776125 0
0.7500000000614123 0.7499999999388061 0
0.4999999998776125 0.25 0
0.2499999999388424 0.2500000000611938 0
0.7499999999388062 0.2499999999388424 0
$EndNodes
$Elements
9 36 1 36
0 1 15 1
1 1 
0 2 15 1
2 2 
0 3 15 1
3 3 
0 4 15 1
4 4 
1 1 1 4
5 1 6 
6 6 5 
7 5 7 
8 7 2 
1 2 1 4
9 2 9 
10 9 8 
11 8 10 
12 10 3 
1 3 1 4
13 3 12 
14 12 11 
15 11 13 
16 13 4 
1 4 1 4
17 4 15 
18 15 14 
19 14 16 
20 16 1 
2 1 3 16
21 4 15 20 13 
22 15 14 18 20 
23 20 18 17 19 
24 13 20 19 11 
25 11 19 22 12 
26 19 17 21 22 
27 22 21 8 10 
28 12 22 10 3 
29 14 16 24 18 
30 16 1 6 24 
31 24 6 5 23 
32 18 24 23 17 
33 17 23 25 21 
34 23 5 7 25 
35 25 7 2 9 
36 21 25 9 8 
$EndElements
